<svg version="1" xmlns="http://www.w3.org/2000/svg" width="341.333" height="341.333" viewBox="0 0 256 256"><path d="M110.7 51.6L89.9 65H17.5l-8.8 8.8L0 82.5V256h256V119.3l-5.9-4.7-6-4.6-6.5 4.1-6.6 4.1-9.8-7.9c-5.3-4.3-27.6-22.4-49.4-40.1C150 52.5 132 38 131.8 38.1c-.2 0-9.7 6.1-21.1 13.5zm39 17.8l9.8 11.4 4.7.1 4.6.1 4.9 8.4c4.3 7.5 6.2 9.4 17.8 19 9.2 7.6 15.4 11.9 21.2 14.6 13.4 6.3 13.4 6.9 2.8 37-4.7 13.5-7.2 19.1-9.1 20.8-2.5 2.2-2.5 2.2-34.7 2l-32.1-.3-1.1-4.3c-1.2-5.1-2.8-5.6-3.6-1-.3 1.9-.9 3.9-1.3 4.6-.5.9-9 1.2-34.1 1.2H66.1l-.4-2.3-.4-2.2-.8 2.2c-1.1 3.3-5.4 3-8.7-.5C53.1 177.3 39 138.5 39 134c0-4.2 2.9-7.1 10.9-10.7 6.9-3.1 9.2-5 24.7-20.4 16.6-16.5 17.1-17 19.7-15.8 2.4 1.1 3.1.8 9.8-4.6 3.9-3.2 9.4-8.9 12.1-12.6l5-6.9h5.7c4.5 0 6.2-.5 8.6-2.5 1.7-1.3 3.3-2.4 3.7-2.5.4 0 5.1 5.1 10.5 11.4z"/><path d="M137.1 64.4c-.9 1-.3 1.9 2.7 3.8 2 1.4 5.7 5.4 8.1 8.9 2.4 3.5 4 5.5 3.6 4.4-.4-1.1-1.4-3.9-2.2-6.2-1.9-5.4-10.4-13.1-12.2-10.9zm-14 3.1c0 .5.8 3.2 1.8 6 1.6 4.5 2.3 5.3 8 8.3 3.9 2.1 7.3 4.9 9.2 7.5 2.6 3.7 3.9 4.4 9.5 5.8l6.4 1.7-3.1-3.9c-1.7-2.2-6.9-7.4-11.6-11.7-4.6-4.2-9.3-9.1-10.4-10.8-1.5-2.6-2.7-3.3-5.9-3.6-2.3-.2-4 .1-3.9.7zm43.9 23c2.4 2.5 4.5 4.5 4.7 4.5.1 0-.7-2-1.9-4.5-1.7-3.6-2.7-4.5-4.7-4.5-2.4 0-2.3.2 1.9 4.5zm-77.3 2.8L87 96.5l5.6.3c3.9.2 6.8 1.1 9.6 2.8 2.2 1.4 4.1 2.4 4.3 2.2C107 101.3 97 91 96 91c-.5 0-1.4-.2-2.2-.4-.7-.3-2.5 1-4.1 2.7zm29.5 18.6c-5.7 3.6-7.2 8.6-7.2 23.8 0 7.2-.4 14.3-1 15.7-1.3 3.5-5.2 5.3-8.5 3.8-4.1-1.9-5.4-6-6.1-19.7-.7-12.2-.6-12.7 1.2-12.3 1.6.3 2 1.6 2.7 9.8 1.1 13.9 1.8 16.4 4.4 16.8 3.1.5 3.7-2.7 2.9-16.7-.6-11-.5-11.9 1.8-16.9 3-6.3 3.8-6.1-13-2.7-21.2 4.3-50.5 15-52.1 19.1-.8 2.1.5 6.9 4.8 18.9l3.3 9 1-3.4c.9-3.1.5-7.8-2.1-22.8-.4-2.6-.1-3.2 1.8-3.8 1.8-.6 2.9 0 5.7 3 3.7 4 4.4 3.9 6.2-1.8 1.2-3.9 3.8-6.1 5.8-4.8 1.6 1 4.6 28.1 3.2 29.5-1.9 1.9-3.2-1.1-4.3-9.8-.5-4.7-1.3-8.6-1.7-8.6-.4 0-1.4 1.9-2.3 4.2l-1.7 4.2-3.4-4c-4-4.5-4.2-4-2.5 6.5.6 4.3.7 7.3 0 9.2l-1 2.9h52.5l2.5-4.3c2.3-4 2.4-4.8 2.1-19.5-.3-13.3-.1-15.3 1.3-15.8 2.4-1 3.9 1.2 7 9.8 1.5 4.3 3.2 7.8 3.6 7.8.5 0 .9-4 .9-8.8 0-9.3.5-10.9 2.7-9.1 1 .9 1.3 4.8 1.3 16.3 0 8.3-.4 15.7-.9 16.5-1.8 2.7-3.8.1-7.1-8.8-1.8-5-3.6-9.4-4.1-9.7-.5-.3-.8 3.9-.6 9.3.1 7.6-.2 10.5-1.5 13l-1.6 3.3h27.7l2.8-3.5c2.1-2.5 3.8-7.4 6.8-18.6 4.2-15.8 5.9-18.9 8.9-15.9 1.5 1.5 3.6 18.3 3.6 28.2 0 5.6-2 6.6-4.2 2-.9-1.8-2.1-2.7-3.7-2.7-1.9 0-2.8 1.1-4.7 5.2l-2.3 5.3h10.3c8.5 0 10.5-.3 11.8-1.8 3.3-3.7 4.7-8.2 5.9-19.7.7-6.6 1.8-12.6 2.4-13.3 1.9-2.1 3.9.7 5.9 8.4 2.6 10 2.7 10.3 3.6 7.4.5-1.4 1.1-5.1 1.5-8.3.5-4 1.1-5.7 2.1-5.7 2.3 0 2.4 1.8.6 14.7-2.4 17.4-5.1 18.8-8.7 4.8-1-3.9-2.1-7.4-2.5-7.9-.5-.4-1.1 2.3-1.5 6-.4 3.8-1.5 8.8-2.6 11.2l-1.8 4.2 16.7-.2 16.7-.3 4.2-12c2.3-6.6 4.2-13 4.2-14.2.1-2.9-2.5-4.6-14.9-9.4-24.6-9.7-43.3-13.8-65.5-14.5-15-.5-16.2-.4-19.3 1.5zm27.2 9.7c2.5 1 1.9 4.3-.9 5.4-2.1.8-2.5 1.6-2.5 5.3 0 2.4-.3 8.5-.6 13.5-.6 8.1-.9 9.2-2.5 9.2-1.8 0-1.9-1-1.9-14.1 0-13.2-.1-14.1-2-14.6-1.3-.3-2-1.4-2-2.9 0-2.2.4-2.4 5.4-2.4 3 0 6.1.3 7 .6zm-57.6 3.9c4.9 3.5 6.8 20.9 2.8 27-3.5 5.3-10.4 3.7-13.1-2.9-1.9-4.5-2.9-12.8-2.1-17.2.8-4.1 4.9-8.4 8-8.4 1.2 0 3.1.7 4.4 1.5zm86.6.3c.6 1.9-1.8 29-2.7 29.9-.4.3-1.4.3-2.3-.1-1.3-.5-1.5-1.5-1.1-5.4.4-2.6.9-9 1.3-14.2.6-8.9 1.5-12 3.5-12 .4 0 1 .8 1.3 1.8zm34.7 7.8c2.3 2.1 2.4 4.3.3 5.1-.9.3-2.1-.3-3-1.6-1.8-2.5-3.9-2.7-4.8-.5-.7 1.8 0 2.8 5.2 8 2.8 2.8 3.3 3.9 2.8 6.2-.8 3.4-5 7.2-8 7.2-1.3 0-3.5-1.1-5-2.5-2.2-2.1-2.5-2.9-1.6-4 1-1.2 1.6-1.1 3.9.6 3.1 2.3 6.1 1.7 6.1-1.4 0-1.1-1.8-3.7-4-5.7-4.5-4.1-5.2-7.8-2.4-11.9 1.4-1.9 2.3-2.2 5.2-1.8 1.9.4 4.3 1.4 5.3 2.3z"/><path d="M82 130.5c-1.8 2.2-1.5 13.7.5 17.5 3.2 6.2 7 2.6 6.9-6.4-.1-9.5-3.9-15.3-7.4-11.1zm75.4 6c-1.3 3.3-.9 8 .6 8 1.1 0 1.6-1.3 1.8-4.8.3-4.6-1.2-6.5-2.4-3.2zm-81.4 34c-1.6 1.9-.6 4.5 1.9 4.5s3.4-2.6 1.5-4.5c-1.9-1.8-1.9-1.8-3.4 0zm3 2c0 .8-.4 1.5-.9 1.5-1.3 0-2.2-1.6-1.4-2.4 1.1-1.1 2.3-.6 2.3.9zm36.3-2.8c-2 .8-1.6 5.3.5 5.3 1.3 0 1.4-.2.3-.9-1.1-.7-1.1-.9 0-1.4 1.2-.5 1.2-.6 0-.6-1.1-.1-1.1-.4-.1-1.6 1.3-1.6 1.3-1.6-.7-.8zm14.7.8c-1.7 2.1-.5 4.5 2.2 4.4h2.3l-2.2-.9c-2.9-1.2-2.9-1.8-.1-2.9 1.7-.6 1.8-.9.5-1.4-.8-.3-2.1.1-2.7.8zm10 0c-1.6 2-.5 4.5 2 4.5 1.4 0 2-.7 2-2.4 0-2.8-2.4-4.1-4-2.1zm3 2.1c0 1.7-2.2 1.4-2.8-.4-.2-.7.3-1.2 1.2-1.2.9 0 1.6.7 1.6 1.6zm7-.6c0 1.9.4 3 .8 2.5 1.1-1.6 3.4-1.7 4.3-.3.6.9.9.4.9-1.5 0-2.8-1.5-3.7-2.3-1.5-.3.9-1 .7-2.1-.7-1.5-1.9-1.5-1.9-1.6 1.5zm41-2.9c0 .4.6 1.8 1.3 3.3l1.4 2.6 1.1-2.6c1.5-3.1 1.5-4.5.1-2.1-1 1.8-1.1 1.8-2.5 0-.7-1-1.4-1.5-1.4-1.2zm-125.6 2.4c-.8 2.1.4 3.5 2.9 3.4h2.2l-2.2-.9c-1.3-.5-2.3-1.2-2.3-1.5 0-.3 1-1 2.3-1.5l2.2-.9h-2.3c-1.2-.1-2.5.6-2.8 1.4zm20.6 1c0 2.2.2 2.4 1.4 1.3.8-.7 1-1.5.5-1.6-.5-.2-.7-.8-.3-1.3.3-.5 0-.9-.5-.9-.6 0-1.1 1.1-1.1 2.5zm9 0c0 2.2.2 2.4 1.4 1.3.8-.7 1-1.5.5-1.6-.5-.2-.7-.8-.3-1.3.3-.5 0-.9-.5-.9-.6 0-1.1 1.1-1.1 2.5zm9 0c0 1.9.5 2.5 2.3 2.5 1.6 0 1.8-.3.9-.9-.8-.4-1.3-1.1-1.3-1.5.3-1.8 0-2.6-.9-2.6-.5 0-1 1.1-1 2.5zm57.8 0c-.6 3-.4 3 2.2.8 2.5-2.2 2.5-3.3.1-3.3-1.2 0-2 .9-2.3 2.5zm9.4-.1c-1 2.2-.8 2.4 1.4 2.2 2.5-.1 2.8-.5 1.8-3-.9-2.3-1.9-2-3.2.8zm9.8.3c0 2 .3 2.4.9 1.4.6-.9 1.1-1 1.5-.2 1.3 2 2.6 1.1 2.6-1.7 0-2.2-.2-2.4-1.1-1.2-.8 1.1-1.2 1.2-1.6.2-.9-2.2-2.3-1.3-2.3 1.5z"/></svg>