<?xml version="1.0" standalone="no"?>
<!DOCTYPE svg PUBLIC "-//W3C//DTD SVG 20010904//EN"
 "http://www.w3.org/TR/2001/REC-SVG-20010904/DTD/svg10.dtd">
<svg version="1.0" xmlns="http://www.w3.org/2000/svg"
 width="256.000000pt" height="256.000000pt" viewBox="0 0 256.000000 256.000000"
 preserveAspectRatio="xMidYMid meet">
<metadata>
Created by potrace 1.11, written by Peter Selinger 2001-2013
</metadata>
<g transform="translate(0.000000,256.000000) scale(0.100000,-0.100000)"
fill="#000000" stroke="none">
<path d="M1107 2044 l-208 -134 -362 0 -362 0 -88 -88 -87 -87 0 -868 0 -867
1280 0 1280 0 0 684 0 683 -59 47 -60 46 -65 -41 -66 -41 -98 79 c-53 43 -276
224 -494 401 -218 177 -398 322 -400 321 -2 0 -97 -61 -211 -135z m390 -178
l98 -114 47 -1 46 -1 49 -84 c43 -75 62 -94 178 -190 92 -76 154 -119 212
-146 134 -63 134 -69 28 -370 -47 -135 -72 -191 -91 -208 -25 -22 -25 -22
-347 -20 l-321 3 -11 43 c-12 51 -28 56 -36 10 -3 -19 -9 -39 -13 -46 -5 -9
-90 -12 -341 -12 l-334 0 -4 23 -4 22 -8 -22 c-11 -33 -54 -30 -87 5 -27 29
-168 417 -168 462 0 42 29 71 109 107 69 31 92 50 247 204 166 165 171 170
197 158 24 -11 31 -8 98 46 39 32 94 89 121 126 l50 69 57 0 c45 0 62 5 86 25
17 13 33 24 37 25 4 0 51 -51 105 -114z"/>
<path d="M1371 1916 c-9 -10 -3 -19 27 -38 20 -14 57 -54 81 -89 24 -35 40
-55 36 -44 -4 11 -14 39 -22 62 -19 54 -104 131 -122 109z"/>
<path d="M1231 1885 c0 -5 8 -32 18 -60 16 -45 23 -53 80 -83 39 -21 73 -49
92 -75 26 -37 39 -44 95 -58 l64 -17 -31 39 c-17 22 -69 74 -116 117 -46 42
-93 91 -104 108 -15 26 -27 33 -59 36 -23 2 -40 -1 -39 -7z"/>
<path d="M1670 1655 c24 -25 45 -45 47 -45 1 0 -7 20 -19 45 -17 36 -27 45
-47 45 -24 0 -23 -2 19 -45z"/>
<path d="M897 1627 l-27 -32 56 -3 c39 -2 68 -11 96 -28 22 -14 41 -24 43 -22
5 5 -95 108 -105 108 -5 0 -14 2 -22 4 -7 3 -25 -10 -41 -27z"/>
<path d="M1192 1441 c-57 -36 -72 -86 -72 -238 0 -72 -4 -143 -10 -157 -13
-35 -52 -53 -85 -38 -41 19 -54 60 -61 197 -7 122 -6 127 12 123 16 -3 20 -16
27 -98 11 -139 18 -164 44 -168 31 -5 37 27 29 167 -6 110 -5 119 18 169 30
63 38 61 -130 27 -212 -43 -505 -150 -521 -191 -8 -21 5 -69 48 -189 l33 -90
10 34 c9 31 5 78 -21 228 -4 26 -1 32 18 38 18 6 29 0 57 -30 37 -40 44 -39
62 18 12 39 38 61 58 48 16 -10 46 -281 32 -295 -19 -19 -32 11 -43 98 -5 47
-13 86 -17 86 -4 0 -14 -19 -23 -42 l-17 -42 -34 40 c-40 45 -42 40 -25 -65 6
-43 7 -73 0 -92 l-10 -29 263 0 262 0 25 43 c23 40 24 48 21 195 -3 133 -1
153 13 158 24 10 39 -12 70 -98 15 -43 32 -78 36 -78 5 0 9 40 9 88 0 93 5
109 27 91 10 -9 13 -48 13 -163 0 -83 -4 -157 -9 -165 -18 -27 -38 -1 -71 88
-18 50 -36 94 -41 97 -5 3 -8 -39 -6 -93 1 -76 -2 -105 -15 -130 l-16 -33 138
0 139 0 28 35 c21 25 38 74 68 186 42 158 59 189 89 159 15 -15 36 -183 36
-282 0 -56 -20 -66 -42 -20 -9 18 -21 27 -37 27 -19 0 -28 -11 -47 -52 l-23
-53 103 0 c85 0 105 3 118 18 33 37 47 82 59 197 7 66 18 126 24 133 19 21 39
-7 59 -84 26 -100 27 -103 36 -74 5 14 11 51 15 83 5 40 11 57 21 57 23 0 24
-18 6 -147 -24 -174 -51 -188 -87 -48 -10 39 -21 74 -25 79 -5 4 -11 -23 -15
-60 -4 -38 -15 -88 -26 -112 l-18 -42 167 2 167 3 42 120 c23 66 42 130 42
142 1 29 -25 46 -149 94 -246 97 -433 138 -655 145 -150 5 -162 4 -193 -15z
m272 -97 c25 -10 19 -43 -9 -54 -21 -8 -25 -16 -25 -53 0 -24 -3 -85 -6 -135
-6 -81 -9 -92 -25 -92 -18 0 -19 10 -19 141 0 132 -1 141 -20 146 -13 3 -20
14 -20 29 0 22 4 24 54 24 30 0 61 -3 70 -6z m-576 -39 c49 -35 68 -209 28
-270 -35 -53 -104 -37 -131 29 -19 45 -29 128 -21 172 8 41 49 84 80 84 12 0
31 -7 44 -15z m866 -3 c6 -19 -18 -290 -27 -299 -4 -3 -14 -3 -23 1 -13 5 -15
15 -11 54 4 26 9 90 13 142 6 89 15 120 35 120 4 0 10 -8 13 -18z m347 -78
c23 -21 24 -43 3 -51 -9 -3 -21 3 -30 16 -18 25 -39 27 -48 5 -7 -18 0 -28 52
-80 28 -28 33 -39 28 -62 -8 -34 -50 -72 -80 -72 -13 0 -35 11 -50 25 -22 21
-25 29 -16 40 10 12 16 11 39 -6 31 -23 61 -17 61 14 0 11 -18 37 -40 57 -45
41 -52 78 -24 119 14 19 23 22 52 18 19 -4 43 -14 53 -23z"/>
<path d="M820 1255 c-18 -22 -15 -137 5 -175 32 -62 70 -26 69 64 -1 95 -39
153 -74 111z"/>
<path d="M1574 1195 c-13 -33 -9 -80 6 -80 11 0 16 13 18 48 3 46 -12 65 -24
32z"/>
<path d="M760 855 c-16 -19 -6 -45 19 -45 25 0 34 26 15 45 -19 18 -19 18 -34
0z m30 -20 c0 -8 -4 -15 -9 -15 -13 0 -22 16 -14 24 11 11 23 6 23 -9z"/>
<path d="M1153 863 c-20 -8 -16 -53 5 -53 13 0 14 2 3 9 -11 7 -11 9 0 14 12
5 12 6 0 6 -11 1 -11 4 -1 16 13 16 13 16 -7 8z"/>
<path d="M1300 855 c-17 -21 -5 -45 22 -44 l23 0 -22 9 c-29 12 -29 18 -1 29
17 6 18 9 5 14 -8 3 -21 -1 -27 -8z"/>
<path d="M1400 855 c-16 -20 -5 -45 20 -45 14 0 20 7 20 24 0 28 -24 41 -40
21z m30 -21 c0 -17 -22 -14 -28 4 -2 7 3 12 12 12 9 0 16 -7 16 -16z"/>
<path d="M1500 840 c0 -19 4 -30 8 -25 11 16 34 17 43 3 6 -9 9 -4 9 15 0 28
-15 37 -23 15 -3 -9 -10 -7 -21 7 -15 19 -15 19 -16 -15z"/>
<path d="M1910 869 c0 -4 6 -18 13 -33 l14 -26 11 26 c15 31 15 45 1 21 -10
-18 -11 -18 -25 0 -7 10 -14 15 -14 12z"/>
<path d="M654 845 c-8 -21 4 -35 29 -34 l22 0 -22 9 c-13 5 -23 12 -23 15 0 3
10 10 23 15 l22 9 -23 0 c-12 1 -25 -6 -28 -14z"/>
<path d="M860 835 c0 -22 2 -24 14 -13 8 7 10 15 5 16 -5 2 -7 8 -3 13 3 5 0
9 -5 9 -6 0 -11 -11 -11 -25z"/>
<path d="M950 835 c0 -22 2 -24 14 -13 8 7 10 15 5 16 -5 2 -7 8 -3 13 3 5 0
9 -5 9 -6 0 -11 -11 -11 -25z"/>
<path d="M1040 835 c0 -19 5 -25 23 -25 16 0 18 3 9 9 -8 4 -13 11 -13 15 3
18 0 26 -9 26 -5 0 -10 -11 -10 -25z"/>
<path d="M1618 835 c-6 -30 -4 -30 22 -8 25 22 25 33 1 33 -12 0 -20 -9 -23
-25z"/>
<path d="M1712 836 c-10 -22 -8 -24 14 -22 25 1 28 5 18 30 -9 23 -19 20 -32
-8z"/>
<path d="M1810 833 c0 -20 3 -24 9 -14 6 9 11 10 15 2 13 -20 26 -11 26 17 0
22 -2 24 -11 12 -8 -11 -12 -12 -16 -2 -9 22 -23 13 -23 -15z"/>
</g>
</svg>
